<svg enable-background="new 0 0 200 184" version="1.1" viewBox="0 0 200 184" xml:space="preserve" xmlns="http://www.w3.org/2000/svg"><path class="st0" d="M78 179.4c-27.1-15.7-44.1-46.4-45.5-82-1.1-27.8 8.4-61 38.2-70.6 14.4-4.6 29.9-3.1 42.7 4.2 10.9 6.2 18.8 16 22.6 27.9h24.8l-.5-3c-.1-.7-.2-1.4-.4-2l-.6-2.4c-1.4-4.4-3.3-8.8-5.6-13.3-9.1-16.1-23.9-27.9-42.8-34.3l.1-.2c-2.1-.6-4.3-1.1-7-1.6-5.5-1.2-11.4-1.8-17.3-1.8-13.3 0-25.4 2.4-36 7.1-10.6 4.6-19.7 11.1-26.9 19.4-7.3 8.2-12.9 18.1-16.8 29.1-4 11.2-6 23.4-6 36.5 0 12.7 2 24.6 5.9 35.6 3.9 10.9 9.6 20.6 16.8 28.7 7.3 8.1 16.3 14.5 26.9 19.1 9.9 4.3 21.2 6.6 33.6 6.9-2.1-1-4.2-2.1-6.2-3.3zM162.4 33.3l.1.2c4.3 8.5 7.2 16.8 8.9 25.2h25.6c-1.2-8.9-3.7-16.8-7.7-23.7-4.4-7.6-9.9-14-16.6-19.1-6.8-5.1-14.3-9.1-22.7-11.7-7.1-2.3-14.5-3.6-22.1-3.9 14.8 7.7 26.6 18.9 34.5 33zM128.5 116.3c-2 10.5-6.1 19.1-12.1 25.9-1.8 2.1-3.7 3.8-5.9 5.3 2.6 1 5.3 1.7 8.1 2.1l1 .1c1.5.1 3 .2 4.6.2h1.1c1.3 0 2.6-.1 4-.2l.8-.1c1.3-.1 2.5-.3 3.7-.5.1 0 .3 0 .4-.1l.6-.1.9-.2c1.1-.2 2.1-.4 3.1-.7h.1l.3-.1c4.6-1.3 7.5-2.9 9.4-4.3l.4-.3.8-.6 1.7-1.2c.3-.2.5-.5.7-.7.5-.4 1-.9 1.4-1.3.3-.3.5-.5.7-.8l1.2-1.4c.2-.3.4-.6.7-.9.4-.5.7-.9 1-1.5l.5-.9.6-1c.9-1.8 1.7-3.8 2.3-6 .3-1.2.6-2.3.8-3.5l.2-.9c.4-2 .6-4.1.7-6.3h-33.8zM129.2 86.4v20h43v10h-.1c-.7 15.9-7 28.3-17.6 35.7-.3.2-.6.4-.8.6-6.2 4.1-13.7 6.5-22.4 7.1-1.9.2-4 .3-6.4.3l-3.7-.1c-9.8-1-19.4-4.6-26.8-10.3-13.2-10.1-23-31.6-25.4-53.7v-.7c0-.5 0-1-.1-1.6v-6.800000000000001l.1-1.8c0-.3 0-.7.1-1 0-.6.1-1.3.2-1.9l.1-.9.2-2 .1-.7.3-2.1.1-.6.4-2.3c0-.1 0-.2.1-.3.2-.8.3-1.6.5-2.5 3.4-14.4 10.8-27.5 22.9-36.3-23.2-3.6-37.3 7.3-44.5 23.8-5.6 11.6-7.6 25.8-7.1 38.7 1.3 32.2 16.4 59.8 40.6 73.8.9.5 1.9 1 2.8 1.4 28.7 15.8 65.6 13.1 88.2-16.1h-.2l.3-.1v.4l4.5 22.7h21.4v-92.7h-70.8z"></path></svg>